<svg width="750" height="750" viewBox="0 0 750 750" fill="none" xmlns="http://www.w3.org/2000/svg">
<circle cx="375.5" cy="40.5" r="23.5" fill="black"/>
<circle cx="709.5" cy="374.5" r="23.5" transform="rotate(90 709.5 374.5)" fill="black"/>
<circle cx="611.288" cy="138.941" r="23.5" transform="rotate(45 611.288 138.941)" fill="black"/>
<circle cx="681.906" cy="243.262" r="23.5" transform="rotate(66.724 681.906 243.262)" fill="black"/>
<circle cx="680.459" cy="510.812" r="23.5" transform="rotate(113.911 680.459 510.812)" fill="black"/>
<circle cx="611.288" cy="611.288" r="23.5" transform="rotate(135 611.288 611.288)" fill="black"/>
<circle cx="138.234" cy="611.995" r="23.5" transform="rotate(45 138.234 611.995)" fill="black"/>
<circle cx="67.3548" cy="507.625" r="23.5" transform="rotate(66.724 67.3548 507.625)" fill="black"/>
<circle cx="68.8757" cy="239.654" r="23.5" transform="rotate(113.911 68.8757 239.654)" fill="black"/>
<circle cx="138.234" cy="138.234" r="23.5" transform="rotate(135 138.234 138.234)" fill="black"/>
<circle cx="242.711" cy="67.5107" r="23.5" transform="rotate(156.724 242.711 67.5107)" fill="black"/>
<circle cx="510.906" cy="69.1866" r="23.5" transform="rotate(-156.089 510.906 69.1866)" fill="black"/>
<circle cx="40.5" cy="374.5" r="23.5" transform="rotate(90 40.5 374.5)" fill="black"/>
</svg>
